<?xml version="1.0" encoding="utf-8"?>
<!DOCTYPE svg PUBLIC "-//W3C//DTD SVG 1.0//EN" "http://www.w3.org/TR/2001/REC-SVG-20010904/DTD/svg10.dtd">
<svg version="1.0" xmlns="http://www.w3.org/2000/svg" width="2000px" height="2000px" viewBox="0 0 2000 2000" preserveAspectRatio="xMidYMid meet">
 <g fill="#ff4141">
  <path d="M968.5 1941 c-34.7 -1.2 -64.1 -3.7 -99 -8.5 -228.8 -31.7 -438.7 -147.7 -589.1 -325.5 -149.8 -177.1 -228.4 -402.8 -221.3 -635.6 1 -33.2 2.9 -57.5 7 -90.4 29.2 -233.3 145.7 -447.3 326.9 -600.6 199.8 -169 460.3 -246.5 722 -214.8 297.4 36 561 213.5 708 476.9 61.5 110.3 100.3 233.1 113.4 359.5 6.6 62.6 6.6 133.4 0 196 -25.2 241.8 -142.8 463.7 -329.4 621.6 -177.7 150.3 -405 229.1 -638.5 221.4z m124.5 -179.4 c116.9 -7.8 208.4 -25.7 290 -56.6 144.6 -54.9 241.9 -151.3 272 -269.5 9.7 -38 9.7 -63 0 -92.5 -7.8 -23.8 -19.3 -42.4 -37.4 -60.6 -22.7 -22.7 -48.2 -36.1 -80.6 -42.6 l-11.5 -2.3 -231.8 -0.3 -231.7 -0.3 0.2 -46.7 0.3 -46.7 103 -0.6 c108.1 -0.6 108.3 -0.6 135.5 -5.4 46.9 -8.2 94.5 -27.8 133.8 -55.2 32.2 -22.4 64.6 -55 86.5 -86.8 48.5 -70.6 68.5 -156.6 55.6 -239 -9.1 -58.4 -33.3 -113.2 -70.6 -160.1 -10.7 -13.5 -38.5 -41.4 -51.3 -51.5 -44.5 -35.3 -91.9 -57.5 -145.2 -68.3 -34.4 -7 -33.1 -6.9 -147.5 -7.3 l-103.3 -0.4 0 -42.8 0 -42.7 3.1 -3 c7.8 -7.3 15.7 -21.1 20.5 -35.4 2.5 -7.7 2.8 -9.8 2.8 -23 0 -13.2 -0.3 -15.3 -2.8 -23 -10.7 -32.2 -34.4 -53.9 -66.5 -61.1 -26 -5.7 -53.8 2.6 -74.9 22.5 -10.9 10.3 -18.5 22.6 -23.8 38.6 -2.5 7.7 -2.8 9.8 -2.8 23 0 13.2 0.3 15.3 2.8 23 4.8 14.3 12.7 28.1 20.5 35.4 l3.1 3 0 42.7 0 42.8 -104.7 0.4 c-112 0.4 -112.7 0.5 -140.8 5.8 -87.8 16.4 -165.8 66.5 -216.2 138.6 -34 48.7 -54.3 103.8 -60.3 163.2 -1.3 13.3 -1.3 44.9 0 58.2 4.3 42.5 15.8 82.5 34.6 120.1 7.4 15 12.1 22.8 22.5 38.3 53.1 78.6 137.6 131.8 230.9 145.5 24.9 3.6 39.9 4 157.3 4 l114.7 0 0 47 0 47 -244.2 0 c-149.4 0 -248.9 0.4 -256 1 -20.9 1.7 -39.4 6.8 -56.5 15.3 -43.6 22 -74.5 63.4 -82.8 111.3 -3.5 20.1 -1.8 42.2 5.5 70.9 25.7 100.9 102 188 213.7 243.8 77.2 38.6 169.4 63.8 278.8 76.2 32.8 3.7 51.5 5.1 106.5 7.9 18.6 1 127.3 -0.4 149 -1.8z"/>
  <path d="M945 1678.3 c-157.6 -5.6 -278.3 -33.2 -370.5 -84.6 -4.9 -2.7 -16.1 -9.7 -24.8 -15.4 -63.8 -42 -106.5 -97.4 -122.1 -158.3 -6.5 -25.4 -6.8 -42.4 -1.1 -57.6 6.8 -18.1 23.4 -33 42.2 -37.8 5.5 -1.4 57.3 -1.6 530.9 -1.6 464.3 0 525.6 0.2 531.3 1.5 10.2 2.4 19.6 7.9 28.2 16.5 19.2 19.2 22.9 40.8 13.4 78.6 -16.4 65.1 -66.1 126.1 -137.5 168.6 -89.8 53.6 -212.8 83.2 -372.5 89.8 -21.1 0.9 -96.7 1.1 -117.5 0.3z"/>
  <path d="M739.5 1057.4 c-2.7 -0.2 -9.9 -0.9 -16 -1.5 -70.7 -7.1 -136.6 -46.9 -178.4 -107.9 -22.1 -32.2 -37.1 -73.9 -41.2 -114.3 -1.5 -15.5 -0.6 -54.6 1.5 -68.2 11.4 -70.3 49.6 -129.9 109.1 -169.9 14.2 -9.6 40.3 -22.3 57.4 -28 16.2 -5.4 36.4 -9.8 52.6 -11.5 8.2 -0.9 79.9 -1.1 281.5 -0.9 l270.5 0.3 12.4 2.3 c51.4 9.7 94.1 31.3 129.9 65.7 21.6 20.7 37.1 41.6 50.4 68 9.4 18.5 13.9 30.5 18.8 49.9 5.8 23 7.4 37.1 7.5 64.6 0 26.8 -1.6 40.7 -7.1 63.2 -14.7 59.9 -52.5 113 -105.4 148.1 -21.6 14.4 -54.3 28.2 -80.6 34.1 -28.2 6.4 -7.5 6 -295.9 6.1 -144.1 0.1 -264.2 0 -267 -0.1z m490.1 -136.9 c26.9 -4.7 49.6 -16.6 68.5 -36.3 18.5 -19.1 29.1 -40 33.4 -66.2 6 -35.4 -8.4 -75.6 -36.6 -102.6 -22.3 -21.3 -52.7 -33.7 -82.4 -33.7 -57.2 0 -108.3 44.1 -118.6 102.3 -7.2 40.5 12.9 87.6 48.5 113.9 25.5 18.9 58.8 27.5 87.2 22.6z m-423.5 -1 c24.4 -4.6 45.6 -15.4 63.5 -32.7 24.1 -23.3 37.6 -53.7 37.7 -85.3 0.1 -30.4 -11.8 -59.5 -33.8 -82.4 -18.2 -19.1 -39.4 -30.7 -66 -36.1 -14.5 -3 -33.2 -2.5 -47.6 1.4 -60.5 16 -100.8 75 -91.4 133.6 8.3 50.9 48.8 92.3 99.4 101.4 10.4 1.9 28.1 1.9 38.2 0.1z"/>
  <path d="M1194.8 889 c-15 -2.7 -31.3 -10.9 -42.4 -21.2 -12.5 -11.8 -20 -23.8 -25.1 -40.5 -2.4 -8 -2.6 -10.3 -2.6 -25.3 -0.1 -19.4 1.5 -26.9 8.7 -41.5 8.2 -16.5 21.6 -29.9 38.1 -38.1 14.3 -7 22.1 -8.7 41 -8.8 19.3 -0.1 25 1.2 41.1 8.9 9.3 4.5 12.6 6.8 19.8 13.6 20.5 19.4 28.5 39.8 27.3 70.2 -0.6 16.4 -2 22.4 -8.2 35.4 -8.4 17.3 -22.3 31.4 -39 39.4 -13.8 6.7 -19.9 8 -38 8.4 -8.8 0.2 -18.1 0 -20.7 -0.5z"/>
  <path d="M775.4 889 c-36.8 -3.7 -67.4 -31.6 -74.8 -68.2 -2 -9.7 -2.1 -29.1 -0.2 -39.1 5.1 -26.7 24 -50.4 49.2 -61.8 11.5 -5.2 22 -7.2 38.4 -7.1 17.2 0.1 25.7 1.9 39.5 8.5 26.2 12.7 43.7 37 47.6 66.2 1.4 10.4 0.6 26.9 -1.6 36.3 -7.5 31.5 -34.2 57.4 -65.4 63.7 -9.1 1.8 -23 2.4 -32.7 1.5z"/>
  <path d="M989.3 354.1 c-8.2 -2.1 -15.8 -8.7 -19.7 -17.1 -3 -6.5 -3 -23.5 0 -30.1 3.1 -6.6 7.8 -11.4 14.2 -14.6 5.1 -2.5 6.7 -2.8 16.2 -2.8 9.5 0 11.1 0.3 16.2 2.8 6.4 3.2 11.1 8 14.2 14.6 3 6.6 3 23.6 0 30.2 -3.1 6.6 -7.8 11.4 -14.2 14.6 -4.7 2.3 -7.1 2.8 -14.6 3 -5 0.1 -10.5 -0.2 -12.3 -0.6z"/>
 </g>
 <g fill="#ffffff">
  <path d="M941 1766.4 c-54.3 -2.8 -73.7 -4.2 -106.5 -7.9 -109.4 -12.4 -201.6 -37.6 -278.8 -76.2 -91 -45.4 -160 -112.9 -195.1 -190.8 -11.4 -25.3 -20.4 -55 -24.2 -79.5 -7.8 -50.8 8.7 -99.9 45.4 -135.1 25.8 -24.8 57.4 -38.9 94 -41.9 7.1 -0.6 106.6 -1 256 -1 l244.2 0 0 -44 0 -44 -114.7 0 c-117.4 0 -132.4 -0.4 -157.3 -4 -108.6 -15.9 -204.3 -85.3 -253.4 -183.8 -18.8 -37.6 -30.3 -77.6 -34.6 -120.1 -1.3 -13.3 -1.3 -50.9 0 -64.2 10.2 -101.4 63.3 -191.3 146.7 -248.2 39.5 -27 82.5 -44.8 129.8 -53.6 28.1 -5.3 28.8 -5.4 140.8 -5.8 l104.7 -0.4 0 -39.8 0 -39.7 -3.1 -3 c-7.8 -7.3 -15.7 -21.1 -20.5 -35.4 -2.7 -8 -2.8 -9.5 -2.8 -26 0 -16.5 0.1 -18 2.8 -26 7 -20.9 18.3 -36.3 35.1 -47.7 15.8 -10.7 31.1 -15.3 50.3 -15.3 29.8 0.1 56.8 13.9 72.9 37.2 6.4 9.3 9.4 15.2 12.9 25.8 2.7 8 2.8 9.5 2.8 26 0 16.5 -0.1 18 -2.8 26 -4.8 14.3 -12.7 28.1 -20.5 35.4 l-3.1 3 0 39.7 0 39.8 103.3 0.4 c114.4 0.4 113.1 0.3 147.5 7.3 53.3 10.8 100.7 33 145.2 68.3 12.8 10.1 40.6 38 51.3 51.5 50.7 63.8 76.9 142 74.4 222.1 -0.9 26.9 -3.1 44.3 -8.8 68.5 -11.5 48.7 -32.3 91.7 -64.3 133 -10.3 13.3 -40 43.3 -53.3 53.8 -46.3 36.5 -98 60.1 -153.3 69.7 -27.2 4.8 -27.4 4.8 -135.5 5.4 l-103 0.6 -0.3 43.7 -0.2 43.7 231.7 0.3 231.8 0.3 11.5 2.3 c32.4 6.5 57.9 19.9 80.6 42.6 29.4 29.4 44.7 65.9 44.7 106.6 0.1 54.4 -27.8 124.8 -70.7 178.2 -69.3 86.2 -177.9 145.7 -323.3 177.2 -53.1 11.5 -106.7 18.6 -175.3 23.2 -21.7 1.5 -135.9 2.8 -155 1.8z m118.5 -91.4 c42.4 -1.7 72.5 -4.1 108.5 -8.6 193.1 -23.9 327.1 -94.4 382.8 -201.4 16 -30.6 25.7 -67 23.1 -86 -2 -14.3 -7.1 -24.3 -17.8 -35 -8.6 -8.6 -18 -14.1 -28.2 -16.5 -5.7 -1.3 -66.7 -1.5 -528.3 -1.5 -470.9 0 -522.4 0.2 -527.9 1.6 -13.8 3.6 -28.8 14.3 -36.4 26.2 -7.7 12 -10.9 26.5 -9.2 41.1 1.5 12.2 7.2 33.6 12.5 47.1 26.2 66 80.3 119.9 160.9 160.3 86.6 43.3 203.3 67.8 348.5 73 20.7 0.8 90.4 0.6 111.5 -0.3z m217.5 -622.3 c28.3 -4.3 52.1 -11.7 76.5 -23.6 26.6 -13 47.6 -28.2 68.5 -49.7 37.9 -38.9 60.8 -85.5 68.7 -139.9 2.6 -17.8 2.3 -51.4 -0.5 -70 -4.3 -27.7 -11.5 -50.2 -24 -75 -13.3 -26.4 -28.8 -47.3 -50.4 -68 -35.8 -34.4 -78.5 -56 -129.9 -65.7 l-12.4 -2.3 -267.5 -0.3 c-199.3 -0.2 -270.3 0 -278.5 0.9 -55.6 5.9 -109.2 31.5 -149 71.4 -37.4 37.4 -61.6 85.1 -70 138 -2.2 13.8 -3.1 47.2 -1.6 62.1 8.4 83.4 57.9 156.6 132.6 196 31.1 16.4 64.1 25.3 103 27.8 2.8 0.1 121.6 0.2 264 0.1 241 -0.1 259.8 -0.2 270.5 -1.8z m-263.6 -704.1 c10.5 -5.1 16 -14.3 16 -26.6 0 -8.5 -2.1 -14.3 -7.3 -20.3 -8.1 -9.2 -23.7 -12 -35.3 -6.4 -10.7 5.2 -16.2 14.3 -16.2 26.7 0 8.3 2 14 6.8 19.8 3.2 3.7 10.2 8.1 14.9 9.3 5.8 1.5 15.3 0.3 21.1 -2.5z"/>
  <path d="M776.6 923.8 c-41.7 -3 -80.5 -29.3 -99.7 -67.7 -27.7 -55.3 -9.7 -123.2 41.7 -157.4 21.8 -14.5 43 -20.8 69.5 -20.8 47.3 0.1 90.1 27.3 110.9 70.7 8 16.6 11.4 32.4 11.3 52.9 -0.1 34.6 -12.7 64.1 -37.7 88.3 -26.1 25.2 -58.6 36.7 -96 34z m28.5 -39.3 c26.5 -5.3 50 -24.8 60.9 -50.4 12.5 -29.3 7.2 -63.4 -13.5 -88.5 -10 -12 -28.6 -23.4 -45 -27.6 -16.6 -4.3 -39.2 -2.2 -54.9 4.9 -53.2 24.1 -67.5 92.9 -28.3 135.8 20.4 22.2 50.5 31.9 80.8 25.8z"/>
  <path d="M1192.1 923.4 c-50.1 -8.4 -89.9 -47.3 -100.7 -98.4 -2.2 -10.5 -2.5 -33.2 -0.5 -44 8 -44.3 39 -80.9 81.1 -95.8 14.4 -5 23.8 -6.6 40.5 -6.6 21.9 0 37.3 3.7 56.8 13.6 21.3 10.9 37.3 26.1 50 47.6 17.6 29.7 21.5 67.1 10.7 100.3 -10.2 31.2 -34.2 58.4 -64.2 72.9 -21.8 10.6 -49.3 14.5 -73.7 10.4z m43.4 -39.3 c24.1 -7.2 43.3 -23.3 54 -45.4 5.8 -12.1 7.5 -18.9 8.2 -32.4 1.4 -26.6 -7.5 -48.5 -27.3 -67.2 -7.2 -6.8 -10.5 -9.1 -19.8 -13.6 -15.3 -7.4 -22 -8.9 -38.1 -8.9 -15.6 0.1 -24.6 2.2 -38 8.8 -21.7 10.7 -38.2 31.1 -44.7 55.1 -3.3 12.3 -3 31.9 0.6 43.8 5 16.7 12.4 28.7 25 40.5 11.1 10.3 27.4 18.5 42.4 21.2 8.2 1.5 29.8 0.4 37.7 -1.9z"/>
 </g>
</svg>